<svg xmlns="http://www.w3.org/2000/svg" width="21.062" height="18" viewBox="0 0 21.062 18">
  <defs>
    <style>
      .cls-1 {
        fill-rule: evenodd;
      }
    </style>
  </defs>
  <path id="attention" class="cls-1" d="M448.8,1875.56l-8.835-14.75a1.717,1.717,0,0,0-2.925,0l-8.835,14.75a1.628,1.628,0,0,0,1.463,2.44h17.67A1.628,1.628,0,0,0,448.8,1875.56Zm-1.462.95h-17.67a0.139,0.139,0,0,1-.123-0.21l8.835-14.75a0.145,0.145,0,0,1,.245,0l8.835,14.75A0.14,0.14,0,0,1,447.335,1876.51Zm-8.836-10.33a0.764,0.764,0,0,0-.773.75v4.27a0.774,0.774,0,0,0,1.547,0v-4.27A0.765,0.765,0,0,0,438.5,1866.18Zm0,6.74a0.758,0.758,0,0,0-.773.75v0.44a0.774,0.774,0,0,0,1.547,0v-0.44A0.758,0.758,0,0,0,438.5,1872.92Z" transform="translate(-427.969 -1860)"/>
</svg>
