<svg xmlns="http://www.w3.org/2000/svg" width="32.5" height="20.59" viewBox="0 0 32.5 20.59">
  <defs>
    <style>
      .cls-1 {
        fill: #414141;
        fill-rule: evenodd;
      }
    </style>
  </defs>
  <path id="bed" class="cls-1" d="M421.182,1605.64h3.211v-3.01a1.117,1.117,0,0,0-1.09-1.14H405.218c0.057,0.13.11,0.25,0.164,0.38a7.557,7.557,0,0,1,.55,2.84,7.326,7.326,0,0,1-.057.93h15.307Zm-22.257-6.93c-0.122,0-.24,0-0.358.01v6.92h6.043a6.267,6.267,0,0,0-.828-4.15A5.7,5.7,0,0,0,398.925,1598.71Zm-4.854,17.42h2.175a1.094,1.094,0,0,0,1.071-1.12v-3.56h23.865v3.56a1.094,1.094,0,0,0,1.071,1.12h2.175a1.1,1.1,0,0,0,1.072-1.12v-6.95a1.093,1.093,0,0,0-1.072-1.11H397.317v-10.3a1.094,1.094,0,0,0-1.071-1.12h-2.175a1.094,1.094,0,0,0-1.071,1.12v18.36A1.094,1.094,0,0,0,394.071,1616.13Z" transform="translate(-393 -1595.53)"/>
</svg>
