<svg xmlns="http://www.w3.org/2000/svg" width="14" height="26" viewBox="0 0 14 26">
  <defs>
    <style>
      .cls-1 {
        fill-rule: evenodd;
      }
    </style>
  </defs>
  <path id="bookmark" class="cls-1" d="M681.842,1856a0.826,0.826,0,0,0-.844.81v24.21a0.823,0.823,0,0,0,.448.72,0.868,0.868,0,0,0,.867-0.05l5.677-3.67,5.682,3.83a0.856,0.856,0,0,0,.485.15,0.88,0.88,0,0,0,.389-0.09,0.81,0.81,0,0,0,.456-0.72v-24.38a0.826,0.826,0,0,0-.845-0.81H681.842Zm11.47,23.62-4.828-3.25a0.853,0.853,0,0,0-.484-0.15,0.808,0.808,0,0,0-.472.14l-4.841,3.13v-21.86h10.625v21.99Z" transform="translate(-681 -1856)"/>
</svg>
