<svg xmlns="http://www.w3.org/2000/svg" width="24" height="24" viewBox="0 0 24 24">
  <defs>
    <style>
      .cls-1 {
        fill: #162124;
        fill-rule: evenodd;
      }
    </style>
  </defs>
  <path id="calendar" class="cls-1" d="M769,391.249h-3.25v-1.5a0.75,0.75,0,0,0-1.5,0v1.5h-4.5v-1.5a0.75,0.75,0,0,0-1.5,0v1.5h-4.5v-1.5a0.75,0.75,0,0,0-1.5,0v1.5H749a2,2,0,0,0-2,2V411a2,2,0,0,0,2,2h20a2,2,0,0,0,2-2V393.248A2,2,0,0,0,769,391.249ZM769,411c0,0.276.275,0,0,0H749c-0.276,0,0,.276,0,0V393c0.062,0.225-.276,0,0,0h3l0.25,1.249a0.75,0.75,0,0,0,1.5,0L754,393h4l0.25,1.249a0.75,0.75,0,0,0,1.5,0L760,393h4l0.25,1.249a0.75,0.75,0,0,0,1.5,0L766,393h3c0.275,0,0-.275,0,0v18Zm-16-13h3v2h-3v-2Zm0,4h3v2h-3v-2Zm0,4h3v2h-3v-2Zm5,0h3v2h-3v-2Zm0-4h3v2h-3v-2Zm0-4h3v2h-3v-2Zm5,8h3v2h-3v-2Zm0-4h3v2h-3v-2Zm0-4h3v2h-3v-2Z" transform="translate(-747 -389)"/>
</svg>
