<svg xmlns="http://www.w3.org/2000/svg" width="32.5" height="23.31" viewBox="0 0 32.5 23.31">
  <defs>
    <style>
      .cls-1 {
        fill: #414141;
        fill-rule: evenodd;
      }
    </style>
  </defs>
  <path id="car" class="cls-1" d="M592.58,1600a0.851,0.851,0,0,0-.645-0.31H588.77c-0.783-2.09-1.8-4.14-2.955-4.91-4-2.67-14.612-2.67-18.613,0-1.157.77-2.17,2.82-2.955,4.91h-3.165a0.845,0.845,0,0,0-.645.31,0.86,0.86,0,0,0-.17.71l0.469,2.3a0.835,0.835,0,0,0,.815.67h0.937a5.765,5.765,0,0,0-1.349,3.73,5.608,5.608,0,0,0,1.739,4.19l0.037,0.03v3.23a1.252,1.252,0,0,0,1.249,1.26h2.919a1.252,1.252,0,0,0,1.249-1.26v-1.3h16.353v1.3a1.251,1.251,0,0,0,1.249,1.26h2.918a1.253,1.253,0,0,0,1.249-1.26v-3.16a5.861,5.861,0,0,0,.363-8.02h1a0.834,0.834,0,0,0,.816-0.67l0.469-2.3A0.87,0.87,0,0,0,592.58,1600Zm-24.006-3.1c3.189-2.13,12.68-2.13,15.867,0,0.619,0.41,1.416,2.08,2.146,4.12H566.429C567.158,1598.98,567.954,1597.31,568.574,1596.9Zm-3.735,10.83a2.457,2.457,0,1,1,2.457,2.49A2.471,2.471,0,0,1,564.839,1607.73Zm20.914,2.49a2.49,2.49,0,1,1,2.457-2.49A2.471,2.471,0,0,1,585.753,1610.22Z" transform="translate(-560.281 -1592.81)"/>
</svg>
