<svg xmlns="http://www.w3.org/2000/svg" width="34" height="34" viewBox="0 0 34 34">
  <defs>
    <style>
      .cls-1 {
        fill-rule: evenodd;
      }
    </style>
  </defs>
  <path id="chat" class="cls-1" d="M1064.02,575.983a17,17,0,0,0-25.16,22.8,6.368,6.368,0,0,1-2.68,3.1,1.585,1.585,0,0,0,.46,2.99,8.069,8.069,0,0,0,1.2.092h0a10.989,10.989,0,0,0,6.11-1.979A17,17,0,0,0,1064.02,575.983Zm-1.36,22.674A15.081,15.081,0,0,1,1044.37,601a0.95,0.95,0,0,0-1.07.064,9.185,9.185,0,0,1-5.34,1.958,9.7,9.7,0,0,0,2.92-4.022,0.987,0.987,0,0,0-.17-1.025A15.074,15.074,0,1,1,1062.66,598.657Zm-3.54-16.267h-14.24a0.961,0.961,0,0,0,0,1.922h14.24A0.961,0.961,0,1,0,1059.12,582.39Zm0,4.649h-14.24a0.961,0.961,0,0,0,0,1.922h14.24A0.961,0.961,0,1,0,1059.12,587.039Zm0,4.649h-14.24a0.961,0.961,0,0,0,0,1.922h14.24A0.961,0.961,0,1,0,1059.12,591.688Z" transform="translate(-1035 -571)"/>
</svg>
