<svg xmlns="http://www.w3.org/2000/svg" width="33" height="33" viewBox="0 0 33 33">
  <defs>
    <style>
      .cls-1 {
        fill-rule: evenodd;
      }
    </style>
  </defs>
  <path id="check" class="cls-1" d="M1191.17,726.832A16.508,16.508,0,1,0,1196,738.5,16.393,16.393,0,0,0,1191.17,726.832Zm-11.67,26.346a14.678,14.678,0,1,1,14.68-14.678A14.7,14.7,0,0,1,1179.5,753.178Zm3.85-18.484-5.67,5.682-2.03-2.031a0.912,0.912,0,0,0-1.29,1.289l2.68,2.679a0.906,0.906,0,0,0,.64.27,0.894,0.894,0,0,0,.64-0.27l6.32-6.323A0.914,0.914,0,0,0,1183.35,734.694Z" transform="translate(-1163 -722)"/>
</svg>
