<svg xmlns="http://www.w3.org/2000/svg" width="32.5" height="32.94" viewBox="0 0 32.5 32.94">
  <defs>
    <style>
      .cls-1 {
        fill: #414141;
        fill-rule: evenodd;
      }
    </style>
  </defs>
  <path id="clock" class="cls-1" d="M721.1,1583.02a16.482,16.482,0,1,0,16.25,16.48A16.383,16.383,0,0,0,721.1,1583.02Zm6.834,27.48-0.7-1.22a0.457,0.457,0,0,0-.392-0.23,0.465,0.465,0,0,0-.227.07,0.457,0.457,0,0,0-.164.62l0.7,1.23a12.73,12.73,0,0,1-5.2,1.51v-1.73a0.855,0.855,0,1,0-1.71,0v1.73a12.432,12.432,0,0,1-5.128-1.48l0.694-1.22a0.466,0.466,0,0,0,.044-0.35,0.448,0.448,0,0,0-.436-0.34,0.456,0.456,0,0,0-.393.23l-0.693,1.23a13.049,13.049,0,0,1-3.887-3.81l1.47-.86a0.879,0.879,0,0,0,.313-1.19,0.863,0.863,0,0,0-1.169-.32l-1.472.87a13.086,13.086,0,0,1-1.307-5.24l1.4-.01a0.472,0.472,0,0,0,.32-0.13,0.466,0.466,0,0,0,.131-0.33,0.452,0.452,0,0,0-.453-0.45h-1.4a13.082,13.082,0,0,1,1.31-5.32l1.472,0.86a0.837,0.837,0,0,0,.427.12,0.867,0.867,0,0,0,.742-0.43,0.879,0.879,0,0,0-.313-1.19l-1.47-.86a13.107,13.107,0,0,1,3.82-3.77l0.7,1.23a0.43,0.43,0,0,0,.165.16,0.458,0.458,0,0,0,.453,0,0.447,0.447,0,0,0,.21-0.28,0.466,0.466,0,0,0-.046-0.35l-0.7-1.22a12.726,12.726,0,0,1,5.2-1.51v1.72a0.855,0.855,0,1,0,1.71,0v-1.72a12.569,12.569,0,0,1,5.127,1.47l-0.693,1.23a0.467,0.467,0,0,0,.167.63,0.446,0.446,0,0,0,.225.06,0.458,0.458,0,0,0,.393-0.23l0.693-1.23a13.061,13.061,0,0,1,3.887,3.81l-1.47.86a0.879,0.879,0,0,0-.313,1.19,0.866,0.866,0,0,0,.741.43,0.835,0.835,0,0,0,.427-0.12l1.472-.86a13.071,13.071,0,0,1,1.308,5.24h-1.4a0.48,0.48,0,0,0-.32.14,0.461,0.461,0,0,0,.1.72,0.44,0.44,0,0,0,.224.06h1.4a13.122,13.122,0,0,1-1.31,5.32l-1.473-.87a0.862,0.862,0,0,0-1.168.32,0.879,0.879,0,0,0,.313,1.19l1.47,0.86A12.951,12.951,0,0,1,727.938,1610.5Zm-0.513-15.7-5.486,3.08a1.765,1.765,0,0,0-1.67,0l-5.486-3.08a1.056,1.056,0,0,0-1.461.42,1.1,1.1,0,0,0,.419,1.48l5.6,3.15a1.8,1.8,0,0,0,3.532,0l5.6-3.15a1.094,1.094,0,0,0,.418-1.48A1.054,1.054,0,0,0,727.425,1594.8Z" transform="translate(-704.844 -1583.03)"/>
</svg>
