<svg xmlns="http://www.w3.org/2000/svg" width="32.5" height="32.97" viewBox="0 0 32.5 32.97">
  <defs>
    <style>
      .cls-1 {
        fill: #414141;
        fill-rule: evenodd;
      }
    </style>
  </defs>
  <path id="coffee" class="cls-1" d="M525.528,1611.01a23.712,23.712,0,0,0,2.913-5.97,5.261,5.261,0,0,0,2.68.76c3.171,0,5.752-2.9,5.752-6.43s-2.581-6.42-5.752-6.42c-0.232,0-.438.03-0.67,0.05,0-.37.026-0.75,0.026-1.12h-24.4c0,7.84,1.964,14.81,4.956,19.15h14.5v-0.02Zm4.876-16.65a3.568,3.568,0,0,1,.724-0.08c2.447,0,4.438,2.28,4.438,5.06s-1.991,5.07-4.438,5.07a3.853,3.853,0,0,1-2.269-.73A40.879,40.879,0,0,0,530.4,1594.36ZM505.892,1616H535.2l1.5-3.64H504.373Zm6.222-26.27a0.647,0.647,0,0,0,.644-0.66v-2.79a0.644,0.644,0,1,0-1.287,0v2.78A0.646,0.646,0,0,0,512.114,1589.73Zm6.163,0a0.647,0.647,0,0,0,.644-0.66v-5.36a0.644,0.644,0,1,0-1.287,0v5.36A0.666,0.666,0,0,0,518.277,1589.73Zm6.17,0a0.647,0.647,0,0,0,.644-0.66v-2.79a0.644,0.644,0,1,0-1.287,0v2.78A0.659,0.659,0,0,0,524.447,1589.73Z" transform="translate(-504.375 -1583.03)"/>
</svg>
