<svg xmlns="http://www.w3.org/2000/svg" width="35" height="35" viewBox="0 0 35 35">
  <defs>
    <style>
      .cls-1 {
        fill-rule: evenodd;
      }
    </style>
  </defs>
  <path id="coin" class="cls-1" d="M1297.57,584.67h-0.54a13.947,13.947,0,0,0-4.07-5.59v-0.007a3.668,3.668,0,0,1,.6-3.055,1.767,1.767,0,0,0-.01-1.913,1.808,1.808,0,0,0-1.75-.814,7.479,7.479,0,0,0-5.04,2.577,18.243,18.243,0,0,0-2.64-.514,0.855,0.855,0,1,0-.2,1.7,15.945,15.945,0,0,1,2.91.621,0.869,0.869,0,0,0,.98-0.336,5.677,5.677,0,0,1,4.22-2.348,0.077,0.077,0,0,1,.08.035,0.083,0.083,0,0,1,0,.086,5.362,5.362,0,0,0-.8,4.433v0.022a0.852,0.852,0,0,0,.32.642,12.1,12.1,0,0,1,3.98,5.582,0.865,0.865,0,0,0,.82.593h1.16a0.708,0.708,0,0,1,.71.707v3.854a0.708,0.708,0,0,1-.71.707h-1.1a0.851,0.851,0,0,0-.82.607,11.855,11.855,0,0,1-3.55,5.361c-0.01.007-.01,0.007-0.01,0.014l-0.01.007c-0.07.057-.13,0.107-0.19,0.164a0.053,0.053,0,0,1-.03.015,5.957,5.957,0,0,0-2.04,4.161v1.285h-5.18v-1.206a0.867,0.867,0,0,0-.96-0.85c-0.58.057-1.15,0.093-1.73,0.093a17.2,17.2,0,0,1-2.19-.143,0.839,0.839,0,0,0-.68.207,0.856,0.856,0,0,0-.3.643v1.263h-5.19v-0.414a8.017,8.017,0,0,0-2.2-5.2,13,13,0,0,1-2.35-3.548,0.044,0.044,0,0,1-.01-0.029,10.694,10.694,0,0,1-.92-2.42V591.63a10.113,10.113,0,0,1-.31-2.506,9.439,9.439,0,0,1,.16-1.763,0.866,0.866,0,0,0-1.71-.279,12.74,12.74,0,0,0-.17,2.049,12.154,12.154,0,0,0,.34,2.877,0.09,0.09,0,0,0,.01.05,0.078,0.078,0,0,1,.01.043,12.617,12.617,0,0,0,1.04,2.762,14.232,14.232,0,0,0,2.68,4,6.383,6.383,0,0,1,1.71,4.062v0.435a0.314,0.314,0,0,0,.01.1,1.7,1.7,0,0,0,1.7,1.528h5.21a1.713,1.713,0,0,0,1.72-1.706v-0.322a18.849,18.849,0,0,0,2.39.036v0.293a1.713,1.713,0,0,0,1.72,1.706h5.21a1.713,1.713,0,0,0,1.72-1.706V602.03a4.213,4.213,0,0,1,1.46-2.919c0.07-.057.13-0.115,0.2-0.172,0.01-.007.01-0.007,0.01-0.014a0.2,0.2,0,0,0,.05-0.043,13.75,13.75,0,0,0,3.82-5.511h0.46a2.429,2.429,0,0,0,2.44-2.42V587.1A2.431,2.431,0,0,0,1297.57,584.67Zm-24.11,2.105a8.388,8.388,0,1,0-8.45-8.387A8.428,8.428,0,0,0,1273.46,586.775Zm0-15.062a6.675,6.675,0,1,1-6.72,6.675A6.709,6.709,0,0,1,1273.46,571.713Z" transform="translate(-1265 -570)"/>
</svg>
