<svg xmlns="http://www.w3.org/2000/svg" width="19" height="32.97" viewBox="0 0 19 32.97">
  <defs>
    <style>
      .cls-1 {
        fill: #414141;
        fill-rule: evenodd;
      }
    </style>
  </defs>
  <path id="cutlery" class="cls-1" d="M632.937,1583.04a3.856,3.856,0,0,0-3.9,3.52L628,1600.73a2.185,2.185,0,0,0,.608,1.68,2.344,2.344,0,0,0,1.677.72h0.062l-0.358,11.09a1.685,1.685,0,0,0,.509,1.26,1.818,1.818,0,0,0,1.3.52h1.5a1.779,1.779,0,0,0,1.827-1.73v-29.13A2.142,2.142,0,0,0,632.937,1583.04Zm-8.608.02h-0.153a0.616,0.616,0,0,0-.643.62v6.24a1.033,1.033,0,0,1-1.047,1.01h-0.153a1.037,1.037,0,0,1-1.051-1.01v-6.24a0.612,0.612,0,0,0-.639-0.62h-0.155a0.625,0.625,0,0,0-.655.62v6.24a1.024,1.024,0,0,1-1.036,1.01h-0.153a1,1,0,0,1-1.01-1.01v-6.24a0.648,0.648,0,0,0-.681-0.62H616.8a0.636,0.636,0,0,0-.667.62v9.44a2.114,2.114,0,0,0,2.169,2.08h0.288l-0.61,19.02a1.7,1.7,0,0,0,.508,1.26,1.82,1.82,0,0,0,1.3.52h1.439a1.822,1.822,0,0,0,1.3-.52,1.711,1.711,0,0,0,.509-1.27l-0.611-19.01h0.411a2.106,2.106,0,0,0,2.153-2.08v-9.44A0.622,0.622,0,0,0,624.329,1583.06Z" transform="translate(-616.125 -1583.03)"/>
</svg>
