<svg xmlns="http://www.w3.org/2000/svg" width="32.5" height="27.47" viewBox="0 0 32.5 27.47">
  <defs>
    <style>
      .cls-1 {
        fill: #414141;
        fill-rule: evenodd;
      }
    </style>
  </defs>
  <path id="desktop" class="cls-1" d="M847.235,1588.84v-0.05H818.248v0.05a1.925,1.925,0,0,0-1.749,1.73v19.29a1.957,1.957,0,0,0,.255.97,1.776,1.776,0,0,0,1.654.98H828.87v2.67h-1.988a0.885,0.885,0,0,0,0,1.77H838.6a0.885,0.885,0,1,0,0-1.77h-1.988v-2.67h10.463a1.77,1.77,0,0,0,1.653-.98,2,2,0,0,0,.27-0.97v-19.29A1.967,1.967,0,0,0,847.235,1588.84Zm0,1.9v19.12a0.138,0.138,0,0,1-.159.16H818.408a0.138,0.138,0,0,1-.16-0.16v-19.29h28.987v0.17Z" transform="translate(-816.5 -1588.78)"/>
</svg>
