<svg xmlns="http://www.w3.org/2000/svg" width="31" height="23" viewBox="0 0 31 23">
  <defs>
    <style>
      .cls-1 {
        fill-rule: evenodd;
      }
    </style>
  </defs>
  <path id="envelope" class="cls-1" d="M1193.3,418h-29.6a0.707,0.707,0,0,0-.7.719v21.562a0.707,0.707,0,0,0,.7.719h29.6a0.713,0.713,0,0,0,.7-0.719V418.719A0.713,0.713,0,0,0,1193.3,418Zm-0.71,19.824-8.73-8.9-0.99,1.016,9.43,9.625h-27.6l9.43-9.625-0.99-1.016-8.73,8.9V419.437h28.18v18.387Zm-1.42-18.387L1178.5,432.36l-12.67-12.923h-1.42v0.58L1178,433.884a0.7,0.7,0,0,0,1,0l13.59-13.867v-0.58h-1.42Z" transform="translate(-1163 -418)"/>
</svg>
