<svg xmlns="http://www.w3.org/2000/svg" width="45" height="47" viewBox="0 0 45 47">
  <defs>
    <style>
      .cls-1 {
        fill: #272727;
        fill-rule: evenodd;
      }
    </style>
  </defs>
  <path id="finger" class="cls-1" d="M1245.91,593v-1.621H1223a4.046,4.046,0,0,1-3.22-6.553,4.073,4.073,0,0,1-3.33-3.982,4,4,0,0,1,.88-2.5,4.072,4.072,0,0,1-3.33-3.981,3.431,3.431,0,0,1,2.22-3.43,4.024,4.024,0,0,1-1.4-3.053,4.073,4.073,0,0,1,4.09-4.052h11.75l-0.59-2.763a27.748,27.748,0,0,1-.1-9.069c0.43-2.83,2.95-6,5.7-6h0.2c1.3,0,3.49.736,3.49,5.672,0,6.5,1.64,9.476,3.02,10.826a4.24,4.24,0,0,0,2.71,1.329h0.82v-1.62H1259V593h-13.09Zm-0.79-27.553a5.676,5.676,0,0,1-3.83-1.737c-2.37-2.266-3.56-6.316-3.56-12.038,0-1.513-.24-4.052-1.86-4.052h-0.2c-1.82,0-3.77,2.537-4.08,4.612a26.124,26.124,0,0,0,.08,8.492l1.02,4.724h-13.78a2.431,2.431,0,1,0,0,4.862h8.18a0.811,0.811,0,1,1,0,1.621h-5.73a28.116,28.116,0,0,0-3.15.156c-2.14.314-2.57,1.136-2.57,2.275a2.444,2.444,0,0,0,2.45,2.431h9a0.81,0.81,0,1,1,0,1.62h-6.54a2.431,2.431,0,1,0,0,4.862h8.18a0.811,0.811,0,1,1,0,1.621H1223a2.431,2.431,0,1,0,0,4.862h22.91v-24.31h-0.79Zm12.24-1.62h-9.81v27.552h9.81V563.827Zm-4.91,17.017a4.052,4.052,0,1,1-4.09,4.052A4.081,4.081,0,0,1,1252.45,580.844Zm0,6.483A2.431,2.431,0,1,0,1250,584.9,2.446,2.446,0,0,0,1252.45,587.327Z" transform="translate(-1214 -546)"/>
</svg>
