<svg xmlns="http://www.w3.org/2000/svg" width="47" height="34" viewBox="0 0 47 34">
  <defs>
    <style>
      .cls-1 {
        fill-rule: evenodd;
      }
    </style>
  </defs>
  <path id="homes" class="cls-1" d="M824.531,583.034l-15.779-11.8a1.187,1.187,0,0,0-1.419,0l-2.594,1.939-2.594-1.939a1.188,1.188,0,0,0-1.42,0l-2.529,1.891-2.529-1.891a1.187,1.187,0,0,0-1.419,0l-15.779,11.8a1.166,1.166,0,0,0-.469.933v19.864A1.174,1.174,0,0,0,779.179,605h44.642A1.174,1.174,0,0,0,825,603.831V583.967A1.166,1.166,0,0,0,824.531,583.034Zm-1.888,19.628h-4.25v-18.7a1.166,1.166,0,0,0-.469-0.933L806.7,574.639l1.345-1.006,14.6,10.917v18.112Zm-10.728,0v-18.7a1.163,1.163,0,0,0-.469-0.933l-11.292-8.443,1.281-.958,14.6,10.917v18.113h-4.121Zm-15.027,0h-3.861v-8.474h3.861v8.474Zm2.357,0v-9.643a1.175,1.175,0,0,0-1.179-1.169h-6.217a1.175,1.175,0,0,0-1.179,1.169v9.643H780.357V584.55l14.6-10.917,14.6,10.917v18.112H799.245Z" transform="translate(-778 -571)"/>
</svg>
