<svg xmlns="http://www.w3.org/2000/svg" width="31" height="32" viewBox="0 0 31 32">
  <defs>
    <style>
      .cls-1 {
        fill-rule: evenodd;
      }
    </style>
  </defs>
  <path id="key" class="cls-1" d="M1194.83,521.611l-12.25-11.835c1.81-3.969,1.25-7.987-1.54-10.821a9.9,9.9,0,0,0-14.71.645,10.267,10.267,0,0,0,.63,13.721,9.5,9.5,0,0,0,9.76,2.322l1.41,1.455a0.579,0.579,0,0,0,.41.178h2.37v1.787a0.59,0.59,0,0,0,.59.6h1.76v1.787a0.59,0.59,0,0,0,.59.6h2.35v2.383a0.588,0.588,0,0,0,.58.6h1.18v1.058a1.592,1.592,0,0,0,.49,1.348,1.954,1.954,0,0,0,1.27.572h4.7a0.6,0.6,0,0,0,.59-0.6v-5.362A0.625,0.625,0,0,0,1194.83,521.611Zm-1,5.2-4.06,0a0.715,0.715,0,0,1-.48-0.224,0.469,0.469,0,0,1-.16-0.507v-1.653a0.588,0.588,0,0,0-.58-0.6h-1.18v-2.383a0.59,0.59,0,0,0-.59-0.6h-2.35v-1.787a0.588,0.588,0,0,0-.58-0.6h-1.77v-1.787a0.588,0.588,0,0,0-.58-0.6h-2.71l-1.49-1.54a0.58,0.58,0,0,0-.61-0.146,8.4,8.4,0,0,1-8.91-1.924,9.061,9.061,0,0,1-.55-12.105,8.687,8.687,0,0,1,6.37-3.182,8.8,8.8,0,0,1,6.61,2.61c2.54,2.585,2.96,6.172,1.13,9.842a0.607,0.607,0,0,0,.12.7l12.37,11.959v4.51h0Zm-24.84-25.747a3.616,3.616,0,0,0,0,5.055,3.5,3.5,0,0,0,4.99,0,3.616,3.616,0,0,0,0-5.055A3.5,3.5,0,0,0,1168.99,501.061Zm4.15,4.212a2.377,2.377,0,0,1-3.32,0,2.4,2.4,0,0,1,0-3.37,2.34,2.34,0,0,1,3.33,0,2.4,2.4,0,0,1,.68,1.686A2.359,2.359,0,0,1,1173.14,505.273Z" transform="translate(-1164 -496)"/>
</svg>
