<svg xmlns="http://www.w3.org/2000/svg" width="23" height="32.97" viewBox="0 0 23 32.97">
  <defs>
    <style>
      .cls-1 {
        fill: #414141;
        fill-rule: evenodd;
      }
    </style>
  </defs>
  <path id="leaf" class="cls-1" d="M677.992,1583.04a18.36,18.36,0,0,1-5.488,3.69c-21.112,7.86-12.208,23.17-11.918,23.22a12.439,12.439,0,0,1,2.783-3.33c10.149-7.68,12.211-16.51,12.211-16.51s-2.277,10.63-11.305,17.24c-1.994,1.46-3.345,5.06-3.916,8.65,0,0,1.413-.59,2.021-0.75a11.753,11.753,0,0,1,1.571-4.47c12.618,1.54,16.751-8.92,17.291-12.56A23.016,23.016,0,0,0,677.992,1583.04Z" transform="translate(-658.469 -1583.03)"/>
</svg>
