<svg xmlns="http://www.w3.org/2000/svg" width="23" height="35" viewBox="0 0 23 35">
  <defs>
    <style>
      .cls-1 {
        fill-rule: evenodd;
      }
    </style>
  </defs>
  <path id="marker" data-name="Forma 1" class="cls-1" d="M743.5,549A11.552,11.552,0,0,0,732,560.577c0,2.571,1.631,6.763,4.986,12.815,2.372,4.28,4.706,7.849,4.8,8L743.5,584l1.709-2.609c0.1-.15,2.432-3.719,4.805-8,3.355-6.052,4.986-10.244,4.986-12.815A11.552,11.552,0,0,0,743.5,549Zm0,17.5a6,6,0,1,1,5.961-6A5.981,5.981,0,0,1,743.5,566.5Z" transform="translate(-732 -549)"/>
</svg>
