<svg xmlns="http://www.w3.org/2000/svg" width="41" height="34" viewBox="0 0 41 34">
  <defs>
    <style>
      .cls-1 {
        fill-rule: evenodd;
      }
    </style>
  </defs>
  <path id="people" class="cls-1" d="M542,596.389a11.649,11.649,0,0,0-2.078-6.648,11.946,11.946,0,0,0-3.7-3.465,8.8,8.8,0,0,0,2.793-6.424,8.931,8.931,0,0,0-16.228-5.071,8.912,8.912,0,0,0-2.582,0,8.931,8.931,0,0,0-16.228,5.071,8.8,8.8,0,0,0,2.793,6.424,11.924,11.924,0,0,0-3.7,3.465A11.649,11.649,0,0,0,501,596.389v4.924h8.6V605h23.8v-3.687H542v-4.924h0Zm-11.9-23.2a6.667,6.667,0,1,1,0,13.334c-0.067,0-.133,0-0.2,0l0.014-.042a8.7,8.7,0,0,0,.287-0.993c0-.024.011-0.047,0.017-0.072,0.02-.091.037-0.183,0.054-0.276L530.3,585c0.014-.082.026-0.165,0.038-0.248,0.008-.058.015-0.116,0.022-0.173,0.009-.074.017-0.147,0.024-0.221s0.012-.151.017-0.227c0-.06.009-0.119,0.012-0.179,0.006-.129.01-0.257,0.01-0.386,0-.01,0-0.019,0-0.029s0-.01,0-0.015c0-.132,0-0.263-0.01-0.393,0-.038,0-0.076-0.006-0.114-0.006-.11-0.015-0.221-0.025-0.331,0-.024,0-0.049-0.007-0.074a8.815,8.815,0,0,0-5.294-7.185A6.762,6.762,0,0,1,530.1,573.185Zm-10.924,4.1,0.065-.022c0.067-.024.134-0.047,0.2-0.068,0.051-.017.1-0.032,0.155-0.048l0.113-.032,0.2-.053a6.723,6.723,0,0,1,3.17,0c0.068,0.016.136,0.034,0.2,0.053l0.115,0.032,0.153,0.047c0.069,0.022.137,0.044,0.2,0.068l0.063,0.022a6.7,6.7,0,0,1,4.312,5.217l0.009,0.058c0.012,0.082.023,0.164,0.032,0.247,0,0.03.007,0.06,0.01,0.091,0.007,0.075.012,0.151,0.017,0.227,0,0.032,0,.065.006,0.1,0,0.1.008,0.195,0.008,0.293v0.038c0,0.095,0,.189-0.007.283,0,0.03,0,.059,0,0.089-0.006.091-.012,0.181-0.021,0.271l-0.012.1c-0.007.058-.015,0.116-0.023,0.174s-0.012.09-.02,0.134c-0.011.068-.023,0.136-0.036,0.2s-0.025.12-.038,0.18c-0.009.036-.017,0.072-0.026,0.107-0.021.089-.045,0.177-0.07,0.265-0.01.034-.019,0.07-0.03,0.1q-0.023.075-.048,0.15c-0.013.04-.027,0.079-0.041,0.119s-0.031.09-.048,0.134c-0.028.076-.058,0.151-0.089,0.226l-0.043.1c-0.028.062-.055,0.123-0.085,0.184a0.214,0.214,0,0,1-.01.022c-0.01.022-.021,0.043-0.031,0.065-0.033.066-.067,0.131-0.1,0.2-0.013.025-.026,0.05-0.04,0.075l0,0c-0.038.069-.078,0.137-0.118,0.2l-0.048.08c-0.044.07-.09,0.141-0.136,0.21-0.029.043-.059,0.085-0.089,0.127s-0.051.072-.077,0.107-0.068.091-.1,0.136l-0.072.091-0.113.136c-0.023.028-.048,0.055-0.072,0.082q-0.058.069-.12,0.135c-0.024.026-.049,0.051-0.074,0.077-0.066.069-.134,0.137-0.2,0.2-0.041.039-.082,0.079-0.124,0.117l-0.088.078q-0.072.065-.147,0.126l-0.075.062c-0.06.048-.121,0.1-0.182,0.142l-0.05.038a6.745,6.745,0,0,1-8,0l-0.049-.037c-0.061-.046-0.122-0.094-0.182-0.142l-0.076-.062c-0.049-.041-0.1-0.083-0.146-0.126l-0.088-.078c-0.043-.039-0.084-0.078-0.125-0.118q-0.1-.1-0.2-0.2c-0.024-.025-0.049-0.05-0.073-0.076q-0.06-.066-0.12-0.135l-0.072-.082c-0.038-.045-0.075-0.091-0.112-0.136l-0.072-.091c-0.035-.045-0.069-0.09-0.1-0.136s-0.052-.071-0.077-0.107-0.06-.084-0.089-0.127c-0.047-.07-0.092-0.14-0.136-0.211-0.017-.026-0.032-0.052-0.048-0.079-0.041-.068-0.081-0.137-0.12-0.206l-0.042-.078c-0.034-.065-0.068-0.13-0.1-0.2-0.012-.024-0.023-0.048-0.034-0.071l-0.006-.011c-0.03-.064-0.059-0.128-0.088-0.193l-0.04-.093c-0.032-.076-0.062-0.153-0.092-0.23l-0.045-.126c-0.015-.043-0.03-0.087-0.044-0.13s-0.031-.1-0.046-0.142c-0.021-.071-0.042-0.142-0.061-0.214-0.014-.05-0.026-0.1-0.038-0.152s-0.02-.079-0.028-0.12-0.023-.1-0.032-0.147c-0.016-.077-0.03-0.154-0.042-0.232-0.007-.042-0.013-0.084-0.019-0.126-0.009-.062-0.017-0.125-0.024-0.187,0-.031-0.008-0.062-0.011-0.093-0.009-.092-0.016-0.185-0.021-0.278,0-.027,0-0.054,0-0.08,0-.1-0.008-0.2-0.008-0.3s0-.215.008-0.321l0.006-.087c0-.08.01-0.16,0.018-0.239l0.009-.083c0.009-.085.02-0.171,0.033-0.256,0-.016,0-0.033.007-0.049A6.7,6.7,0,0,1,519.175,577.283Zm-12.993,2.569a6.727,6.727,0,0,1,11.741-4.425,8.814,8.814,0,0,0-5.294,7.188c0,0.021,0,.043-0.006.065q-0.017.171-.027,0.342l-0.006.1c-0.006.137-.01,0.274-0.01,0.412s0,0.279.011,0.417c0,0.056.007,0.112,0.01,0.167,0.006,0.08.011,0.16,0.019,0.24s0.015,0.141.023,0.212,0.015,0.122.023,0.184c0.012,0.08.024,0.16,0.037,0.239,0.008,0.048.017,0.095,0.026,0.142,0.016,0.089.033,0.178,0.052,0.266,0.007,0.029.014,0.058,0.02,0.087a8.935,8.935,0,0,0,.278.963c0.008,0.02.014,0.04,0.021,0.06l-0.2,0A6.7,6.7,0,0,1,506.182,579.852Zm5.262,13.927-0.071.115c-0.05.08-.1,0.161-0.148,0.243-0.027.045-.053,0.091-0.079,0.137-0.044.076-.087,0.152-0.128,0.228l-0.078.145c-0.04.076-.079,0.153-0.117,0.23-0.024.048-.048,0.1-0.071,0.145-0.039.08-.077,0.162-0.114,0.244-0.02.044-.041,0.088-0.06,0.133-0.043.1-.084,0.2-0.124,0.3-0.012.028-.025,0.057-0.036,0.086-0.051.129-.1,0.258-0.146,0.388-0.011.03-.02,0.06-0.031,0.09-0.034.1-.068,0.2-0.1,0.3-0.015.046-.029,0.093-0.043,0.139-0.025.086-.051,0.172-0.075,0.258-0.014.051-.028,0.1-0.041,0.154-0.022.083-.043,0.166-0.063,0.25-0.012.052-.025,0.105-0.036,0.158-0.019.084-.037,0.169-0.054,0.254-0.01.051-.021,0.1-0.03,0.153-0.018.093-.033,0.186-0.048,0.279-0.007.043-.015,0.087-0.022,0.13-0.02.137-.039,0.274-0.054,0.411a0.011,0.011,0,0,0,0,0c-0.014.125-.026,0.251-0.037,0.376H503.2v-2.739a9.6,9.6,0,0,1,5.564-8.7,8.929,8.929,0,0,0,5.43.918c0.067,0.095.135,0.189,0.2,0.281,0.024,0.031.048,0.061,0.073,0.091,0.069,0.089.14,0.176,0.213,0.262l0.091,0.1c0.068,0.077.137,0.154,0.208,0.229,0.037,0.04.075,0.079,0.113,0.118,0.065,0.066.13,0.132,0.2,0.2,0.025,0.024.049,0.05,0.074,0.074-0.1.057-.19,0.116-0.284,0.176l-0.045.029q-0.141.092-.279,0.186l-0.095.066c-0.083.057-.164,0.115-0.244,0.175l-0.076.056c-0.1.077-.2,0.155-0.3,0.235l-0.065.053c-0.079.065-.158,0.13-0.236,0.2l-0.09.078c-0.077.068-.154,0.137-0.23,0.207l-0.06.055c-0.093.087-.185,0.176-0.276,0.266-0.024.023-.047,0.047-0.07,0.071-0.069.07-.138,0.141-0.205,0.213l-0.081.086c-0.076.083-.151,0.167-0.225,0.251-0.011.014-.023,0.027-0.035,0.04-0.084.1-.167,0.2-0.248,0.3l-0.067.085c-0.061.077-.121,0.155-0.18,0.233l-0.069.091c-0.077.105-.154,0.211-0.228,0.319S511.52,593.661,511.444,593.779Zm0.356,9.037v-2.739c0-.122,0-0.242.007-0.363,0-.04,0-0.079.007-0.118,0-.081.007-0.161,0.013-0.242,0-.048.009-0.1,0.014-0.145,0.006-.07.012-0.141,0.02-0.211,0.006-.051.013-0.1,0.02-0.154s0.017-.133.026-0.2l0.027-.158c0.011-.064.021-0.128,0.033-0.191s0.022-.108.033-0.161,0.025-.124.039-0.186,0.027-.107.04-0.161,0.029-.121.045-0.181,0.03-.108.046-0.161,0.033-.118.051-0.176,0.035-.108.052-0.162,0.037-.114.057-0.171,0.038-.107.058-0.16,0.041-.113.063-0.168,0.042-.1.064-0.158,0.045-.11.068-0.165,0.047-.1.071-0.156,0.048-.108.073-0.161,0.051-.1.077-0.155,0.052-.105.079-0.156,0.054-.1.082-0.153,0.056-.1.085-0.153,0.058-.1.087-0.149,0.059-.1.09-0.15,0.062-.1.094-0.146,0.062-.1.1-0.146,0.065-.1.1-0.144l0.1-.142c0.034-.047.069-0.094,0.1-0.14s0.069-.093.1-0.138l0.109-.137c0.037-.045.073-0.09,0.111-0.134s0.075-.089.114-0.133,0.076-.087.115-0.13,0.079-.086.119-0.129,0.08-.085.12-0.126l0.124-.125c0.042-.041.083-0.082,0.126-0.122s0.085-.081.128-0.12,0.086-.08.13-0.119l0.133-.115,0.135-.114c0.045-.038.091-0.074,0.137-0.111l0.14-.11,0.141-.105,0.145-.106,0.145-.1c0.049-.034.1-0.068,0.15-0.1s0.1-.064.148-0.095l0.155-.1,0.151-.09,0.16-.091,0.155-.084,0.165-.086,0.158-.079,0.126-.06a8.948,8.948,0,0,0,8.271,0l0.126,0.06,0.159,0.079,0.163,0.085c0.053,0.028.105,0.057,0.157,0.086s0.106,0.059.158,0.09,0.1,0.06.154,0.091l0.153,0.094,0.15,0.1,0.148,0.1,0.146,0.1,0.144,0.1c0.048,0.035.1,0.071,0.142,0.107l0.139,0.109q0.069,0.054.138,0.111l0.134,0.113c0.045,0.039.09,0.077,0.133,0.117s0.087,0.078.13,0.117,0.087,0.08.129,0.121l0.125,0.121,0.124,0.126,0.12,0.125,0.12,0.13,0.114,0.129,0.115,0.134,0.11,0.133,0.11,0.138c0.035,0.045.07,0.091,0.1,0.137s0.071,0.094.105,0.141,0.067,0.094.1,0.142,0.066,0.1.1,0.144,0.063,0.1.094,0.145,0.064,0.1.094,0.147,0.06,0.1.09,0.149l0.088,0.15c0.029,0.051.056,0.1,0.084,0.153s0.056,0.1.082,0.153,0.053,0.1.08,0.156,0.051,0.1.076,0.155,0.049,0.107.074,0.16,0.047,0.1.07,0.157,0.046,0.109.068,0.164,0.044,0.106.065,0.159,0.042,0.112.062,0.167,0.04,0.107.059,0.161,0.038,0.114.057,0.172,0.035,0.107.052,0.161,0.034,0.117.051,0.176,0.031,0.107.046,0.161,0.03,0.12.045,0.181,0.027,0.107.039,0.161,0.026,0.124.039,0.185,0.023,0.107.034,0.162,0.021,0.126.032,0.19,0.019,0.106.027,0.159,0.018,0.133.026,0.2,0.015,0.1.021,0.155c0.008,0.07.013,0.141,0.02,0.211,0,0.049.01,0.1,0.013,0.145,0.006,0.08.01,0.161,0.014,0.242,0,0.039,0,.078.007,0.118,0,0.12.006,0.241,0.006,0.362v2.74H511.8Zm21.563-3.688q-0.033-.4-0.092-0.793c-0.006-.042-0.014-0.083-0.021-0.124-0.015-.1-0.031-0.191-0.049-0.285-0.009-.05-0.019-0.1-0.029-0.149-0.018-.087-0.036-0.173-0.055-0.259-0.011-.051-0.024-0.1-0.036-0.155q-0.03-.126-0.063-0.252l-0.041-.152c-0.024-.087-0.05-0.174-0.076-0.261-0.014-.045-0.027-0.091-0.042-0.136-0.032-.1-0.066-0.205-0.1-0.307-0.01-.028-0.019-0.057-0.029-0.085-0.046-.131-0.095-0.261-0.146-0.39l-0.034-.082q-0.062-.15-0.126-0.3c-0.019-.044-0.04-0.087-0.06-0.131-0.037-.082-0.075-0.165-0.114-0.246-0.023-.048-0.047-0.1-0.071-0.143-0.038-.078-0.078-0.155-0.118-0.232-0.025-.048-0.051-0.1-0.077-0.144l-0.128-.229c-0.026-.045-0.052-0.091-0.079-0.136-0.049-.082-0.1-0.163-0.149-0.244l-0.071-.114c-0.075-.118-0.152-0.235-0.232-0.35s-0.151-.214-0.229-0.319l-0.068-.09c-0.059-.079-0.12-0.157-0.181-0.235l-0.066-.083c-0.082-.1-0.164-0.2-0.249-0.3l-0.033-.038c-0.075-.085-0.15-0.17-0.227-0.253l-0.08-.085c-0.068-.073-0.137-0.144-0.207-0.215l-0.068-.07c-0.091-.09-0.183-0.179-0.277-0.267l-0.058-.053c-0.077-.071-0.154-0.14-0.232-0.208l-0.09-.078c-0.078-.067-0.157-0.132-0.236-0.2l-0.065-.053c-0.1-.08-0.2-0.158-0.3-0.235l-0.077-.056c-0.08-.059-0.161-0.117-0.243-0.175l-0.1-.066c-0.091-.063-0.183-0.124-0.276-0.184l-0.048-.031c-0.094-.06-0.189-0.119-0.284-0.176,0.025-.023.048-0.048,0.072-0.072,0.068-.065.135-0.132,0.2-0.2,0.037-.037.074-0.075,0.11-0.114,0.072-.076.142-0.154,0.212-0.233l0.088-.1c0.074-.087.145-0.175,0.216-0.265,0.023-.029.047-0.058,0.069-0.088,0.071-.092.139-0.186,0.207-0.281a9.05,9.05,0,0,0,1.293.094,8.907,8.907,0,0,0,4.136-1.013,9.6,9.6,0,0,1,5.564,8.7v2.739h-6.435Z" transform="translate(-501 -571)"/>
</svg>
