<svg xmlns="http://www.w3.org/2000/svg" width="32.469" height="32.97" viewBox="0 0 32.469 32.97">
  <defs>
    <style>
      .cls-1 {
        fill: #414141;
        fill-rule: evenodd;
      }
    </style>
  </defs>
  <path id="phone" class="cls-1" d="M793.112,1609.05a1.616,1.616,0,0,1-.481,1.4l-4.574,4.61a2.581,2.581,0,0,1-.808.59,3.2,3.2,0,0,1-.98.31c-0.024,0-.092.01-0.207,0.02s-0.264.02-.447,0.02a15.979,15.979,0,0,1-2.115-.23,15.507,15.507,0,0,1-3.577-1.12,29.364,29.364,0,0,1-4.8-2.67,35.571,35.571,0,0,1-5.709-4.88,38.821,38.821,0,0,1-3.989-4.61,32.8,32.8,0,0,1-2.545-4.07,21.694,21.694,0,0,1-1.445-3.39,18.308,18.308,0,0,1-.653-2.61,8.873,8.873,0,0,1-.138-1.73c0.023-.42.035-0.65,0.035-0.7a3.435,3.435,0,0,1,.31-1,2.7,2.7,0,0,1,.584-0.82l4.574-4.64a1.49,1.49,0,0,1,1.1-.49,1.3,1.3,0,0,1,.791.26,2.452,2.452,0,0,1,.585.65l3.68,7.09a1.722,1.722,0,0,1,.172,1.22,2.237,2.237,0,0,1-.585,1.12l-1.685,1.71a0.53,0.53,0,0,0-.12.22,0.875,0.875,0,0,0-.052.26,6.4,6.4,0,0,0,.619,1.68,15.236,15.236,0,0,0,1.272,2.04,32.361,32.361,0,0,0,5.194,5.27,15.268,15.268,0,0,0,2.011,1.31,5.427,5.427,0,0,0,1.238.51l0.43,0.09a1,1,0,0,0,.224-0.05,0.6,0.6,0,0,0,.224-0.13l1.96-2.02a2.1,2.1,0,0,1,1.444-.56,1.775,1.775,0,0,1,.929.21h0.034l6.637,3.98A1.756,1.756,0,0,1,793.112,1609.05Z" transform="translate(-760.656 -1583.03)"/>
</svg>
