<svg xmlns="http://www.w3.org/2000/svg" width="39" height="49" viewBox="0 0 39 49">
  <defs>
    <style>
      .cls-1 {
        fill: #272727;
        fill-rule: evenodd;
      }
    </style>
  </defs>
  <path id="request" class="cls-1" d="M667.76,594.606l-2.2-2.211V563.812l-0.4-.406-3.659-3.678V547H629v42.466h4.063v4.084h31.351l2.2,2.21a0.808,0.808,0,0,0,1.149,0A0.817,0.817,0,0,0,667.76,594.606Zm-4.973-31.273h-9.414v-9.462l8.125,8.167Zm-32.164,24.5v-39.2h29.25V558.1l-6.572-6.606-0.4-.406H633.061v36.75h-2.438Zm4.063,4.083v-39.2h17.062v12.25h12.188v25.8l-6.105-6.137a9.593,9.593,0,1,0-7.34,3.437,9.536,9.536,0,0,0,6.191-2.282l6.105,6.136h-28.1Zm15.8-5.487a8.026,8.026,0,1,1,7.986-8.026A8.014,8.014,0,0,1,650.491,586.429ZM645.756,576.4h4.875a0.817,0.817,0,0,0,0-1.634h-4.875A0.817,0.817,0,0,0,645.756,576.4Zm9.75,3.267h-9.75a0.817,0.817,0,0,0,0,1.633h9.75A0.817,0.817,0,0,0,655.506,579.667Z" transform="translate(-629 -547)"/>
</svg>
