<svg xmlns="http://www.w3.org/2000/svg" width="49" height="37" viewBox="0 0 49 37">
  <defs>
    <style>
      .cls-1 {
        fill: #272727;
        fill-rule: evenodd;
      }
    </style>
  </defs>
  <path id="send" class="cls-1" d="M980.813,558.3a0.806,0.806,0,0,0-.729-0.291,0.818,0.818,0,0,0-.182.032l-47.293,12.97a0.824,0.824,0,0,0-.041,1.575l17.305,5.718-1.548,12.485a0.823,0.823,0,0,0,.4.815,0.807,0.807,0,0,0,.9-0.06l6.333-4.89,5.552,8a0.813,0.813,0,0,0,.668.351l0.055,0a0.813,0.813,0,0,0,.67-0.445l18-35.363A0.821,0.821,0,0,0,980.813,558.3Zm-5.665,2.75-24.5,15.78-14.988-4.952Zm-24.963,27.994,1.127-9.09,3.715,5.351Zm11.892,3.547-10.155-14.627L978.1,561.1Z" transform="translate(-932 -558)"/>
</svg>
