<svg xmlns="http://www.w3.org/2000/svg" width="24" height="26" viewBox="0 0 24 26">
  <defs>
    <style>
      .cls-1 {
        fill-rule: evenodd;
      }
    </style>
  </defs>
  <path id="share" class="cls-1" d="M914.443,1872.7a4.533,4.533,0,0,0-3.605,1.82l-6.994-3.99a4.764,4.764,0,0,0,.254-1.54,4.576,4.576,0,0,0-.259-1.53l6.988-3.99a4.509,4.509,0,0,0,3.611,1.83,4.639,4.639,0,1,0-4.293-3.11l-6.983,3.98a4.5,4.5,0,0,0-3.611-1.82,4.646,4.646,0,0,0,.006,9.29,4.529,4.529,0,0,0,3.616-1.83l6.988,3.99a4.741,4.741,0,0,0-.264,1.55A4.553,4.553,0,1,0,914.443,1872.7Zm0-15.24a3.191,3.191,0,1,1-3.124,3.19A3.16,3.16,0,0,1,914.443,1857.46Zm-14.886,14.72a3.191,3.191,0,1,1,3.124-3.19A3.16,3.16,0,0,1,899.557,1872.18Zm14.886,8.36a3.191,3.191,0,1,1,3.124-3.19A3.16,3.16,0,0,1,914.443,1880.54Z" transform="translate(-895 -1856)"/>
</svg>
