<svg xmlns="http://www.w3.org/2000/svg" width="24" height="24" viewBox="0 0 24 24">
  <defs>
    <style>
      .cls-1 {
        fill-rule: evenodd;
      }
    </style>
  </defs>
  <path id="update" class="cls-1" d="M704.193,864.492a11.464,11.464,0,0,0-2.8-3.017L703.833,859h-7.09v7.2l3.313-3.365a9.7,9.7,0,0,1,4.068,7.876,9.562,9.562,0,0,1-9.5,9.6v1.9A11.526,11.526,0,0,0,704.193,864.492ZM682,871.286a11.52,11.52,0,0,0,4.6,9.239L684.166,883h7.09v-7.2l-3.312,3.365a9.693,9.693,0,0,1-4.068-7.877,9.561,9.561,0,0,1,9.5-9.6v-1.9A11.451,11.451,0,0,0,682,871.286Z" transform="translate(-682 -859)"/>
</svg>
