<svg xmlns="http://www.w3.org/2000/svg" width="40" height="40" viewBox="0 0 40 40">
  <defs>
    <style>
      .cls-1 {
        fill-rule: evenodd;
      }
    </style>
  </defs>
  <path id="Forma_1" data-name="Forma 1" class="cls-1" d="M1503,34a20,20,0,1,0-33.51,14.733l-0.02.017,0.65,0.547c0.04,0.036.09,0.065,0.13,0.1,0.35,0.286.7,0.557,1.07,0.82,0.11,0.085.23,0.17,0.35,0.253q0.585,0.4,1.2.762c0.09,0.052.18,0.1,0.26,0.154,0.45,0.254.91,0.493,1.37,0.713a0.959,0.959,0,0,1,.1.047,19.939,19.939,0,0,0,4.84,1.531l0.14,0.024c0.52,0.091,1.05.164,1.59,0.212l0.2,0.015c0.54,0.044,1.08.073,1.63,0.073s1.08-.028,1.62-0.071c0.06-.006.13-0.01,0.2-0.015,0.53-.049,1.06-0.119,1.58-0.209l0.14-.025a19.84,19.84,0,0,0,4.77-1.495c0.05-.026.11-0.049,0.16-0.076q0.675-.316,1.32-0.681c0.11-.06.21-0.121,0.32-0.184,0.39-.231.78-0.471,1.15-0.727,0.13-.092.27-0.188,0.4-0.284,0.32-.23.63-0.467,0.94-0.715,0.06-.055.14-0.1,0.2-0.158l0.67-.556-0.02-.017A19.954,19.954,0,0,0,1503,34Zm-38.55,0a18.55,18.55,0,1,1,30.85,13.864,6.031,6.031,0,0,0-.65-0.391l-6.16-3.079a1.611,1.611,0,0,1-.89-1.449V40.795c0.14-.176.29-0.375,0.44-0.594a14.874,14.874,0,0,0,1.91-3.726,2.636,2.636,0,0,0,1.51-2.392V31.5a2.662,2.662,0,0,0-.64-1.723V26.388a5.862,5.862,0,0,0-1.37-4.265c-1.34-1.53-3.51-2.3-6.45-2.3s-5.11.774-6.45,2.3a5.862,5.862,0,0,0-1.37,4.265v3.394a2.661,2.661,0,0,0-.64,1.723v2.578a2.658,2.658,0,0,0,.97,2.052,13.643,13.643,0,0,0,2.25,4.646v2.1a1.62,1.62,0,0,1-.84,1.424l-5.75,3.137a4.513,4.513,0,0,0-.55.346A18.51,18.51,0,0,1,1464.45,34Zm29.43,15.005c-0.26.185-.51,0.364-0.78,0.535-0.12.078-.24,0.157-0.36,0.233-0.34.212-.69,0.415-1.05,0.6l-0.24.121a18.554,18.554,0,0,1-2.53,1.073c-0.03.01-.06,0.021-0.1,0.031q-0.675.227-1.38,0.4h0c-0.48.116-.95,0.213-1.43,0.292a0.3,0.3,0,0,0-.04.007c-0.45.073-.91,0.127-1.37,0.167-0.08.007-.16,0.012-0.24,0.018-0.45.034-.9,0.056-1.36,0.056s-0.92-.023-1.38-0.057c-0.08-.006-0.16-0.011-0.24-0.018-0.46-.041-0.92-0.1-1.37-0.169l-0.06-.011a18.5,18.5,0,0,1-2.83-.706l-0.09-.029c-0.45-.156-0.91-0.328-1.35-0.519,0,0-.01,0-0.01,0-0.42-.181-0.83-0.382-1.24-0.593-0.05-.028-0.11-0.054-0.16-0.082-0.37-.2-0.73-0.413-1.09-0.637-0.11-.067-0.21-0.135-0.32-0.2-0.33-.216-0.65-0.441-0.97-0.678-0.03-.025-0.07-0.051-0.1-0.076,0.02-.013.05-0.026,0.07-0.039l5.75-3.137a3.08,3.08,0,0,0,1.61-2.7l-0.01-2.62-0.16-.2a12.126,12.126,0,0,1-2.19-4.521l-0.06-.288-0.25-.161a1.206,1.206,0,0,1-.56-1.012V31.5a1.165,1.165,0,0,1,.41-0.89l0.24-.217V26.346l-0.01-.1a4.385,4.385,0,0,1,1.01-3.171c1.06-1.2,2.86-1.807,5.36-1.807s4.29,0.6,5.34,1.793a4.472,4.472,0,0,1,1.03,3.186l-0.01,4.146,0.24,0.217a1.2,1.2,0,0,1,.41.889v2.578a1.211,1.211,0,0,1-.86,1.145l-0.36.111-0.12.36a13.622,13.622,0,0,1-1.81,3.66,8.567,8.567,0,0,1-.54.69l-0.18.206v2.69a3.055,3.055,0,0,0,1.7,2.751l6.16,3.079,0.12,0.06C1494.04,48.894,1493.96,48.948,1493.88,49.005Z" transform="translate(-1463 -14)"/>
</svg>
