<svg xmlns="http://www.w3.org/2000/svg" width="32.5" height="23.35" viewBox="0 0 32.5 23.35">
  <defs>
    <style>
      .cls-1 {
        fill: #414141;
        fill-rule: evenodd;
      }
    </style>
  </defs>
  <path id="wifi" class="cls-1" d="M464.769,1610.03a2.92,2.92,0,1,0,2.966,2.92A2.946,2.946,0,0,0,464.769,1610.03Zm15.894-10.2a20.934,20.934,0,0,0-31.788,0,1.434,1.434,0,0,0,.182,2.05,1.488,1.488,0,0,0,2.089-.17,17.935,17.935,0,0,1,27.246,0,1.489,1.489,0,0,0,2.09.17A1.436,1.436,0,0,0,480.663,1599.83Zm-15.894-1.47a14.9,14.9,0,0,0-11.352,5.22,1.435,1.435,0,0,0,.182,2.05,1.485,1.485,0,0,0,.953.34,1.467,1.467,0,0,0,1.136-.52,11.975,11.975,0,0,1,18.164,0,1.467,1.467,0,0,0,1.136.52,1.483,1.483,0,0,0,.952-0.34,1.436,1.436,0,0,0,.182-2.05A14.9,14.9,0,0,0,464.769,1598.36Zm0,5.84a8.939,8.939,0,0,0-6.812,3.13,1.436,1.436,0,0,0,.182,2.05,1.487,1.487,0,0,0,.953.34,1.469,1.469,0,0,0,1.137-.52,5.976,5.976,0,0,1,9.08,0,1.47,1.47,0,0,0,1.136.52,1.49,1.49,0,0,0,.954-0.34,1.436,1.436,0,0,0,.182-2.05A8.939,8.939,0,0,0,464.769,1604.2Z" transform="translate(-448.5 -1592.53)"/>
</svg>
