<?xml version="1.0" standalone="no"?>
<!DOCTYPE svg PUBLIC "-//W3C//DTD SVG 20010904//EN"
 "http://www.w3.org/TR/2001/REC-SVG-20010904/DTD/svg10.dtd">
<svg version="1.0" xmlns="http://www.w3.org/2000/svg"
 width="16.000000pt" height="16.000000pt" viewBox="0 0 16.000000 16.000000"
 preserveAspectRatio="xMidYMid meet">
<metadata>
Created by potrace 1.11, written by Peter Selinger 2001-2013
</metadata>
<g transform="translate(0.000000,16.000000) scale(0.006154,-0.006154)"
fill="#000000" stroke="none">
<path d="M1150 2593 c-162 -25 -286 -61 -408 -118 -377 -177 -660 -554 -726
-970 -22 -139 -14 -363 17 -496 124 -524 535 -905 1071 -995 126 -21 355 -12
489 20 589 138 1003 655 1005 1256 0 196 -29 346 -102 519 -171 406 -550 703
-991 776 -46 8 -318 14 -355 8z m350 -28 c420 -77 762 -330 949 -703 38 -76
93 -242 112 -337 21 -106 18 -359 -5 -470 -51 -243 -162 -458 -327 -630 -196
-204 -395 -315 -684 -381 -83 -19 -310 -25 -420 -11 -157 19 -360 94 -512 188
-118 74 -302 255 -378 372 -139 216 -204 424 -210 672 -4 170 13 289 61 434
155 461 536 784 1019 865 80 14 323 14 395 1z"/>
<path d="M730 2024 l0 -52 233 0 c127 0 240 -1 250 -1 16 -1 17 -42 17 -716
l0 -715 55 0 55 0 0 715 0 715 23 1 c12 0 124 1 248 2 l226 0 2 49 c1 26 -2
49 -6 49 -5 1 -254 2 -555 3 l-548 1 0 -51z"/>
</g>
</svg>
